<svg xmlns="http://www.w3.org/2000/svg" width="1200" height="500" viewBox="0 0 1200 500">
<rect width="100%" height="100%" fill="white"/>
<g fill="none" stroke-linecap="round" stroke-linejoin="round" stroke-width="18">
<circle cx="250" cy="120" r="38" stroke="#0D3B8C"/>
<path d="M205 185 Q205 155 235 155 L265 155 Q295 155 295 185 L295 280" stroke="#0D3B8C"/>
<path d="M205 280 Q205 315 240 315" stroke="#0D3B8C"/>
<path d="M240 245 L305 245 L305 350" stroke="#0D3B8C"/>

<circle cx="390" cy="140" r="32" stroke="#6EA8FF"/>
<path d="M352 195 Q352 170 377 170 L403 170 Q428 170 428 195 L428 265" stroke="#6EA8FF"/>
<path d="M352 265 Q352 300 387 300 L425 300 Q455 300 455 270" stroke="#6EA8FF"/>
<path d="M380 255 L435 255" stroke="#6EA8FF"/>
</g>
<text x="120" y="420" font-family="Arial, sans-serif" font-size="72" letter-spacing="12" fill="#0D3B8C">NEXT SEAT</text>
<text x="135" y="470" font-family="Arial, sans-serif" font-size="26" letter-spacing="4" fill="#6EA8FF">YOUR FLIGHT, EXPLAINED CALMLY.</text>
</svg>